<mxfile host="app.diagrams.net" modified="2021-05-06T20:17:06.526Z" agent="5.0 (X11)" etag="9eAlgi0o1CtTzSPk6Ib6" version="14.6.10" type="github">
  <diagram id="GiY3ebTyNPxL1qhEu1Pu" name="Page-1">
    <mxGraphModel dx="813" dy="441" grid="1" gridSize="10" guides="1" tooltips="1" connect="1" arrows="1" fold="1" page="1" pageScale="1" pageWidth="850" pageHeight="1100" math="0" shadow="0">
      <root>
        <mxCell id="0" />
        <mxCell id="1" parent="0" />
        <mxCell id="5-YfzYpszT6BwQLFDBnS-1" value="idle" style="ellipse;whiteSpace=wrap;html=1;aspect=fixed;" parent="1" vertex="1">
          <mxGeometry x="170" y="190" width="80" height="80" as="geometry" />
        </mxCell>
        <mxCell id="5-YfzYpszT6BwQLFDBnS-3" value="decode" style="ellipse;whiteSpace=wrap;html=1;aspect=fixed;" parent="1" vertex="1">
          <mxGeometry x="425" y="50" width="80" height="80" as="geometry" />
        </mxCell>
        <mxCell id="5-YfzYpszT6BwQLFDBnS-4" value="" style="curved=1;endArrow=classic;html=1;rounded=0;edgeStyle=orthogonalEdgeStyle;exitX=0.5;exitY=0;exitDx=0;exitDy=0;entryX=0;entryY=0.5;entryDx=0;entryDy=0;" parent="1" source="5-YfzYpszT6BwQLFDBnS-1" target="5-YfzYpszT6BwQLFDBnS-3" edge="1">
          <mxGeometry width="50" height="50" relative="1" as="geometry">
            <mxPoint x="240" y="190" as="sourcePoint" />
            <mxPoint x="290" y="140" as="targetPoint" />
            <Array as="points">
              <mxPoint x="210" y="90" />
            </Array>
          </mxGeometry>
        </mxCell>
        <mxCell id="5-YfzYpszT6BwQLFDBnS-5" value="decode" style="edgeLabel;html=1;align=center;verticalAlign=middle;resizable=0;points=[];" parent="5-YfzYpszT6BwQLFDBnS-4" vertex="1" connectable="0">
          <mxGeometry x="0.1636" y="-16" relative="1" as="geometry">
            <mxPoint x="-23" y="-16" as="offset" />
          </mxGeometry>
        </mxCell>
        <mxCell id="5-YfzYpszT6BwQLFDBnS-6" value="" style="curved=1;endArrow=classic;html=1;rounded=0;edgeStyle=orthogonalEdgeStyle;exitX=0.5;exitY=0;exitDx=0;exitDy=0;entryX=0;entryY=0.5;entryDx=0;entryDy=0;" parent="1" source="5-YfzYpszT6BwQLFDBnS-1" target="V-2hEH6dSGug5lZV_6_B-1" edge="1">
          <mxGeometry width="50" height="50" relative="1" as="geometry">
            <mxPoint x="210" y="190" as="sourcePoint" />
            <mxPoint x="425" y="90" as="targetPoint" />
            <Array as="points">
              <mxPoint x="340" y="190" />
              <mxPoint x="340" y="170" />
            </Array>
          </mxGeometry>
        </mxCell>
        <mxCell id="5-YfzYpszT6BwQLFDBnS-7" value="encode" style="edgeLabel;html=1;align=center;verticalAlign=middle;resizable=0;points=[];" parent="5-YfzYpszT6BwQLFDBnS-6" vertex="1" connectable="0">
          <mxGeometry x="0.1636" y="-16" relative="1" as="geometry">
            <mxPoint x="-14" y="-6" as="offset" />
          </mxGeometry>
        </mxCell>
        <mxCell id="5-YfzYpszT6BwQLFDBnS-8" value="" style="curved=1;endArrow=classic;html=1;rounded=0;edgeStyle=orthogonalEdgeStyle;exitX=0.5;exitY=0;exitDx=0;exitDy=0;" parent="1" source="5-YfzYpszT6BwQLFDBnS-3" edge="1">
          <mxGeometry width="50" height="50" relative="1" as="geometry">
            <mxPoint x="210" y="190" as="sourcePoint" />
            <mxPoint x="465" y="50" as="targetPoint" />
            <Array as="points">
              <mxPoint x="465" y="40" />
              <mxPoint x="490" y="40" />
              <mxPoint x="490" y="20" />
              <mxPoint x="450" y="20" />
              <mxPoint x="450" y="40" />
              <mxPoint x="465" y="40" />
            </Array>
          </mxGeometry>
        </mxCell>
        <mxCell id="5-YfzYpszT6BwQLFDBnS-9" value="&lt;div&gt;help&lt;/div&gt;" style="edgeLabel;html=1;align=center;verticalAlign=middle;resizable=0;points=[];" parent="5-YfzYpszT6BwQLFDBnS-8" vertex="1" connectable="0">
          <mxGeometry x="0.1636" y="-16" relative="1" as="geometry">
            <mxPoint x="1" y="6" as="offset" />
          </mxGeometry>
        </mxCell>
        <mxCell id="5-YfzYpszT6BwQLFDBnS-11" value="" style="curved=1;endArrow=classic;html=1;rounded=0;edgeStyle=orthogonalEdgeStyle;exitX=0;exitY=0.5;exitDx=0;exitDy=0;entryX=1;entryY=0.5;entryDx=0;entryDy=0;" parent="1" source="5-YfzYpszT6BwQLFDBnS-20" target="5-YfzYpszT6BwQLFDBnS-1" edge="1">
          <mxGeometry width="50" height="50" relative="1" as="geometry">
            <mxPoint x="210" y="190" as="sourcePoint" />
            <mxPoint x="425" y="90" as="targetPoint" />
            <Array as="points">
              <mxPoint x="505" y="230" />
            </Array>
          </mxGeometry>
        </mxCell>
        <mxCell id="5-YfzYpszT6BwQLFDBnS-12" value="input" style="edgeLabel;html=1;align=center;verticalAlign=middle;resizable=0;points=[];" parent="5-YfzYpszT6BwQLFDBnS-11" vertex="1" connectable="0">
          <mxGeometry x="0.1636" y="-16" relative="1" as="geometry">
            <mxPoint x="-20" y="16" as="offset" />
          </mxGeometry>
        </mxCell>
        <mxCell id="5-YfzYpszT6BwQLFDBnS-15" value="" style="curved=1;endArrow=classic;html=1;rounded=0;edgeStyle=orthogonalEdgeStyle;exitX=0;exitY=0.5;exitDx=0;exitDy=0;entryX=0;entryY=0.5;entryDx=0;entryDy=0;" parent="1" source="5-YfzYpszT6BwQLFDBnS-1" target="5-YfzYpszT6BwQLFDBnS-1" edge="1">
          <mxGeometry width="50" height="50" relative="1" as="geometry">
            <mxPoint x="465" y="50" as="sourcePoint" />
            <mxPoint x="465" y="50" as="targetPoint" />
            <Array as="points">
              <mxPoint x="120" y="230" />
              <mxPoint x="120" y="190" />
              <mxPoint x="160" y="190" />
              <mxPoint x="160" y="230" />
            </Array>
          </mxGeometry>
        </mxCell>
        <mxCell id="5-YfzYpszT6BwQLFDBnS-16" value="&lt;div&gt;help&lt;/div&gt;" style="edgeLabel;html=1;align=center;verticalAlign=middle;resizable=0;points=[];" parent="5-YfzYpszT6BwQLFDBnS-15" vertex="1" connectable="0">
          <mxGeometry x="0.1636" y="-16" relative="1" as="geometry">
            <mxPoint x="1" y="6" as="offset" />
          </mxGeometry>
        </mxCell>
        <mxCell id="5-YfzYpszT6BwQLFDBnS-18" value="" style="curved=1;endArrow=classic;html=1;rounded=0;edgeStyle=orthogonalEdgeStyle;" parent="1" target="5-YfzYpszT6BwQLFDBnS-20" edge="1">
          <mxGeometry width="50" height="50" relative="1" as="geometry">
            <mxPoint x="710" y="110" as="sourcePoint" />
            <mxPoint x="250" y="230" as="targetPoint" />
            <Array as="points">
              <mxPoint x="720" y="110" />
              <mxPoint x="720" y="306" />
            </Array>
          </mxGeometry>
        </mxCell>
        <mxCell id="5-YfzYpszT6BwQLFDBnS-19" value="&lt;div&gt;inline&lt;/div&gt;" style="edgeLabel;html=1;align=center;verticalAlign=middle;resizable=0;points=[];" parent="5-YfzYpszT6BwQLFDBnS-18" vertex="1" connectable="0">
          <mxGeometry x="0.1636" y="-16" relative="1" as="geometry">
            <mxPoint x="13" y="-80" as="offset" />
          </mxGeometry>
        </mxCell>
        <mxCell id="5-YfzYpszT6BwQLFDBnS-20" value="data" style="ellipse;whiteSpace=wrap;html=1;aspect=fixed;" parent="1" vertex="1">
          <mxGeometry x="470" y="260" width="80" height="80" as="geometry" />
        </mxCell>
        <mxCell id="5-YfzYpszT6BwQLFDBnS-21" value="alg" style="ellipse;whiteSpace=wrap;html=1;aspect=fixed;" parent="1" vertex="1">
          <mxGeometry x="670" y="30" width="80" height="80" as="geometry" />
        </mxCell>
        <mxCell id="5-YfzYpszT6BwQLFDBnS-24" value="" style="curved=1;endArrow=classic;html=1;rounded=0;edgeStyle=orthogonalEdgeStyle;exitX=1;exitY=0.5;exitDx=0;exitDy=0;entryX=0;entryY=0.5;entryDx=0;entryDy=0;" parent="1" source="5-YfzYpszT6BwQLFDBnS-3" target="5-YfzYpszT6BwQLFDBnS-21" edge="1">
          <mxGeometry width="50" height="50" relative="1" as="geometry">
            <mxPoint x="590" y="120" as="sourcePoint" />
            <mxPoint x="570" y="190" as="targetPoint" />
            <Array as="points">
              <mxPoint x="505" y="70" />
            </Array>
          </mxGeometry>
        </mxCell>
        <mxCell id="5-YfzYpszT6BwQLFDBnS-25" value="inline" style="edgeLabel;html=1;align=center;verticalAlign=middle;resizable=0;points=[];" parent="5-YfzYpszT6BwQLFDBnS-24" vertex="1" connectable="0">
          <mxGeometry x="0.1636" y="-16" relative="1" as="geometry">
            <mxPoint x="7" y="-6" as="offset" />
          </mxGeometry>
        </mxCell>
        <mxCell id="V-2hEH6dSGug5lZV_6_B-1" value="encode" style="ellipse;whiteSpace=wrap;html=1;aspect=fixed;" vertex="1" parent="1">
          <mxGeometry x="490" y="130" width="80" height="80" as="geometry" />
        </mxCell>
      </root>
    </mxGraphModel>
  </diagram>
</mxfile>
